<svg width="205" height="20" viewBox="0 0 205 20" fill="none" xmlns="http://www.w3.org/2000/svg">
<path d="M5.33334 10H10.6667" stroke="#0062FF" stroke-width="1.5" stroke-linecap="round" stroke-linejoin="round"/>
<path d="M8 12.6667V7.33334" stroke="#0062FF" stroke-width="1.5" stroke-linecap="round" stroke-linejoin="round"/>
<path d="M6 16.6667H10C13.3333 16.6667 14.6667 15.3333 14.6667 12V8C14.6667 4.66666 13.3333 3.33333 10 3.33333H6C2.66667 3.33333 1.33334 4.66666 1.33334 8V12C1.33334 15.3333 2.66667 16.6667 6 16.6667Z" stroke="#0062FF" stroke-width="1.5" stroke-linecap="round" stroke-linejoin="round"/>
<path d="M28.256 15.098C27.6027 15.098 27.0147 14.986 26.492 14.762C25.9693 14.5287 25.5587 14.202 25.26 13.782C24.9613 13.362 24.812 12.872 24.812 12.312H26.52C26.5573 12.732 26.7207 13.0773 27.01 13.348C27.3087 13.6187 27.724 13.754 28.256 13.754C28.8067 13.754 29.236 13.6233 29.544 13.362C29.852 13.0913 30.006 12.746 30.006 12.326C30.006 11.9993 29.908 11.7333 29.712 11.528C29.5253 11.3227 29.2873 11.164 28.998 11.052C28.718 10.94 28.326 10.8187 27.822 10.688C27.1873 10.52 26.6693 10.352 26.268 10.184C25.876 10.0067 25.54 9.736 25.26 9.372C24.98 9.008 24.84 8.52267 24.84 7.916C24.84 7.356 24.98 6.866 25.26 6.446C25.54 6.026 25.932 5.704 26.436 5.48C26.94 5.256 27.5233 5.144 28.186 5.144C29.1287 5.144 29.8987 5.382 30.496 5.858C31.1027 6.32467 31.4387 6.96867 31.504 7.79H29.74C29.712 7.43533 29.544 7.132 29.236 6.88C28.928 6.628 28.522 6.502 28.018 6.502C27.5607 6.502 27.1873 6.61867 26.898 6.852C26.6087 7.08533 26.464 7.42133 26.464 7.86C26.464 8.15867 26.5527 8.406 26.73 8.602C26.9167 8.78867 27.15 8.938 27.43 9.05C27.71 9.162 28.0927 9.28333 28.578 9.414C29.222 9.59133 29.7447 9.76867 30.146 9.946C30.5567 10.1233 30.902 10.3987 31.182 10.772C31.4713 11.136 31.616 11.626 31.616 12.242C31.616 12.7367 31.4807 13.2033 31.21 13.642C30.9487 14.0807 30.5613 14.4353 30.048 14.706C29.544 14.9673 28.9467 15.098 28.256 15.098ZM37.4892 7.16C38.0772 7.16 38.5999 7.286 39.0572 7.538C39.5239 7.79 39.8879 8.16333 40.1492 8.658C40.4199 9.15267 40.5552 9.75 40.5552 10.45V15H38.9732V10.688C38.9732 9.99733 38.8006 9.47 38.4552 9.106C38.1099 8.73267 37.6386 8.546 37.0412 8.546C36.4439 8.546 35.9679 8.73267 35.6132 9.106C35.2679 9.47 35.0952 9.99733 35.0952 10.688V15H33.4992V4.64H35.0952V8.182C35.3659 7.85533 35.7066 7.60333 36.1172 7.426C36.5372 7.24867 36.9946 7.16 37.4892 7.16ZM42.059 11.108C42.059 10.3333 42.2177 9.64733 42.535 9.05C42.8617 8.45267 43.3003 7.99067 43.851 7.664C44.411 7.328 45.027 7.16 45.699 7.16C46.3057 7.16 46.833 7.28133 47.281 7.524C47.7383 7.75733 48.1023 8.05133 48.373 8.406V7.286H49.983V15H48.373V13.852C48.1023 14.216 47.7337 14.5193 47.267 14.762C46.8003 15.0047 46.2683 15.126 45.671 15.126C45.0083 15.126 44.4017 14.958 43.851 14.622C43.3003 14.2767 42.8617 13.8007 42.535 13.194C42.2177 12.578 42.059 11.8827 42.059 11.108ZM48.373 11.136C48.373 10.604 48.261 10.142 48.037 9.75C47.8223 9.358 47.5377 9.05933 47.183 8.854C46.8283 8.64867 46.4457 8.546 46.035 8.546C45.6243 8.546 45.2417 8.64867 44.887 8.854C44.5323 9.05 44.243 9.344 44.019 9.736C43.8043 10.1187 43.697 10.576 43.697 11.108C43.697 11.64 43.8043 12.1067 44.019 12.508C44.243 12.9093 44.5323 13.2173 44.887 13.432C45.251 13.6373 45.6337 13.74 46.035 13.74C46.4457 13.74 46.8283 13.6373 47.183 13.432C47.5377 13.2267 47.8223 12.928 48.037 12.536C48.261 12.1347 48.373 11.668 48.373 11.136ZM53.6753 8.434C53.946 8.06067 54.3146 7.75733 54.7813 7.524C55.2573 7.28133 55.7846 7.16 56.3633 7.16C57.0446 7.16 57.6606 7.32333 58.2113 7.65C58.762 7.97667 59.196 8.44333 59.5133 9.05C59.8306 9.64733 59.9893 10.3333 59.9893 11.108C59.9893 11.8827 59.8306 12.578 59.5133 13.194C59.196 13.8007 58.7573 14.2767 58.1973 14.622C57.6466 14.958 57.0353 15.126 56.3633 15.126C55.766 15.126 55.234 15.0093 54.7673 14.776C54.31 14.5427 53.946 14.244 53.6753 13.88V15H52.0793V4.64H53.6753V8.434ZM58.3653 11.108C58.3653 10.576 58.2533 10.1187 58.0293 9.736C57.8146 9.344 57.5253 9.05 57.1613 8.854C56.8066 8.64867 56.424 8.546 56.0133 8.546C55.612 8.546 55.2293 8.64867 54.8653 8.854C54.5106 9.05933 54.2213 9.358 53.9973 9.75C53.7826 10.142 53.6753 10.604 53.6753 11.136C53.6753 11.668 53.7826 12.1347 53.9973 12.536C54.2213 12.928 54.5106 13.2267 54.8653 13.432C55.2293 13.6373 55.612 13.74 56.0133 13.74C56.424 13.74 56.8066 13.6373 57.1613 13.432C57.5253 13.2173 57.8146 12.9093 58.0293 12.508C58.2533 12.1067 58.3653 11.64 58.3653 11.108ZM63.1636 4.64V15H61.5676V4.64H63.1636ZM68.605 15.126C67.877 15.126 67.219 14.9627 66.631 14.636C66.043 14.3 65.581 13.8333 65.245 13.236C64.909 12.6293 64.741 11.9293 64.741 11.136C64.741 10.352 64.9137 9.65667 65.259 9.05C65.6043 8.44333 66.0757 7.97667 66.673 7.65C67.2703 7.32333 67.9377 7.16 68.675 7.16C69.4123 7.16 70.0797 7.32333 70.677 7.65C71.2743 7.97667 71.7457 8.44333 72.091 9.05C72.4363 9.65667 72.609 10.352 72.609 11.136C72.609 11.92 72.4317 12.6153 72.077 13.222C71.7223 13.8287 71.237 14.3 70.621 14.636C70.0143 14.9627 69.3423 15.126 68.605 15.126ZM68.605 13.74C69.0157 13.74 69.3983 13.642 69.753 13.446C70.117 13.25 70.411 12.956 70.635 12.564C70.859 12.172 70.971 11.696 70.971 11.136C70.971 10.576 70.8637 10.1047 70.649 9.722C70.4343 9.33 70.1497 9.036 69.795 8.84C69.4403 8.644 69.0577 8.546 68.647 8.546C68.2363 8.546 67.8537 8.644 67.499 8.84C67.1537 9.036 66.8783 9.33 66.673 9.722C66.4677 10.1047 66.365 10.576 66.365 11.136C66.365 11.9667 66.575 12.6107 66.995 13.068C67.4243 13.516 67.961 13.74 68.605 13.74ZM78.0787 7.16C78.6854 7.16 79.2267 7.286 79.7027 7.538C80.1881 7.79 80.5661 8.16333 80.8367 8.658C81.1074 9.15267 81.2427 9.75 81.2427 10.45V15H79.6607V10.688C79.6607 9.99733 79.4881 9.47 79.1427 9.106C78.7974 8.73267 78.3261 8.546 77.7287 8.546C77.1314 8.546 76.6554 8.73267 76.3007 9.106C75.9554 9.47 75.7827 9.99733 75.7827 10.688V15H74.1867V7.286H75.7827V8.168C76.0441 7.85067 76.3754 7.60333 76.7767 7.426C77.1874 7.24867 77.6214 7.16 78.0787 7.16ZM90.9052 7.16C91.4932 7.16 92.0159 7.286 92.4732 7.538C92.9399 7.79 93.3039 8.16333 93.5652 8.658C93.8359 9.15267 93.9712 9.75 93.9712 10.45V15H92.3892V10.688C92.3892 9.99733 92.2166 9.47 91.8712 9.106C91.5259 8.73267 91.0546 8.546 90.4572 8.546C89.8599 8.546 89.3839 8.73267 89.0292 9.106C88.6839 9.47 88.5112 9.99733 88.5112 10.688V15H86.9152V4.64H88.5112V8.182C88.7819 7.85533 89.1226 7.60333 89.5332 7.426C89.9532 7.24867 90.4106 7.16 90.9052 7.16ZM99.353 15.126C98.625 15.126 97.967 14.9627 97.379 14.636C96.791 14.3 96.329 13.8333 95.993 13.236C95.657 12.6293 95.489 11.9293 95.489 11.136C95.489 10.352 95.6617 9.65667 96.007 9.05C96.3524 8.44333 96.8237 7.97667 97.421 7.65C98.0184 7.32333 98.6857 7.16 99.423 7.16C100.16 7.16 100.828 7.32333 101.425 7.65C102.022 7.97667 102.494 8.44333 102.839 9.05C103.184 9.65667 103.357 10.352 103.357 11.136C103.357 11.92 103.18 12.6153 102.825 13.222C102.47 13.8287 101.985 14.3 101.369 14.636C100.762 14.9627 100.09 15.126 99.353 15.126ZM99.353 13.74C99.7637 13.74 100.146 13.642 100.501 13.446C100.865 13.25 101.159 12.956 101.383 12.564C101.607 12.172 101.719 11.696 101.719 11.136C101.719 10.576 101.612 10.1047 101.397 9.722C101.182 9.33 100.898 9.036 100.543 8.84C100.188 8.644 99.8057 8.546 99.395 8.546C98.9844 8.546 98.6017 8.644 98.247 8.84C97.9017 9.036 97.6264 9.33 97.421 9.722C97.2157 10.1047 97.113 10.576 97.113 11.136C97.113 11.9667 97.323 12.6107 97.743 13.068C98.1724 13.516 98.709 13.74 99.353 13.74ZM106.531 4.64V15H104.935V4.64H106.531ZM108.094 11.108C108.094 10.3333 108.253 9.64733 108.57 9.05C108.897 8.45267 109.336 7.99067 109.886 7.664C110.446 7.328 111.062 7.16 111.734 7.16C112.341 7.16 112.868 7.28133 113.316 7.524C113.774 7.75733 114.138 8.05133 114.408 8.406V7.286H116.018V15H114.408V13.852C114.138 14.216 113.769 14.5193 113.302 14.762C112.836 15.0047 112.304 15.126 111.706 15.126C111.044 15.126 110.437 14.958 109.886 14.622C109.336 14.2767 108.897 13.8007 108.57 13.194C108.253 12.578 108.094 11.8827 108.094 11.108ZM114.408 11.136C114.408 10.604 114.296 10.142 114.072 9.75C113.858 9.358 113.573 9.05933 113.218 8.854C112.864 8.64867 112.481 8.546 112.07 8.546C111.66 8.546 111.277 8.64867 110.922 8.854C110.568 9.05 110.278 9.344 110.054 9.736C109.84 10.1187 109.732 10.576 109.732 11.108C109.732 11.64 109.84 12.1067 110.054 12.508C110.278 12.9093 110.568 13.2173 110.922 13.432C111.286 13.6373 111.669 13.74 112.07 13.74C112.481 13.74 112.864 13.6373 113.218 13.432C113.573 13.2267 113.858 12.928 114.072 12.536C114.296 12.1347 114.408 11.668 114.408 11.136ZM119.976 8.588V12.858C119.976 13.1473 120.042 13.3573 120.172 13.488C120.312 13.6093 120.546 13.67 120.872 13.67H121.852V15H120.592C119.874 15 119.323 14.832 118.94 14.496C118.558 14.16 118.366 13.614 118.366 12.858V8.588H117.456V7.286H118.366V5.368H119.976V7.286H121.852V8.588H119.976ZM124.135 6.264C123.846 6.264 123.603 6.166 123.407 5.97C123.211 5.774 123.113 5.53133 123.113 5.242C123.113 4.95267 123.211 4.71 123.407 4.514C123.603 4.318 123.846 4.22 124.135 4.22C124.415 4.22 124.653 4.318 124.849 4.514C125.045 4.71 125.143 4.95267 125.143 5.242C125.143 5.53133 125.045 5.774 124.849 5.97C124.653 6.166 124.415 6.264 124.135 6.264ZM124.919 7.286V15H123.323V7.286H124.919ZM126.483 11.108C126.483 10.3333 126.642 9.64733 126.959 9.05C127.286 8.45267 127.724 7.99067 128.275 7.664C128.835 7.328 129.456 7.16 130.137 7.16C130.641 7.16 131.136 7.272 131.621 7.496C132.116 7.71067 132.508 8 132.797 8.364V4.64H134.407V15H132.797V13.838C132.536 14.2113 132.172 14.5193 131.705 14.762C131.248 15.0047 130.72 15.126 130.123 15.126C129.451 15.126 128.835 14.958 128.275 14.622C127.724 14.2767 127.286 13.8007 126.959 13.194C126.642 12.578 126.483 11.8827 126.483 11.108ZM132.797 11.136C132.797 10.604 132.685 10.142 132.461 9.75C132.246 9.358 131.962 9.05933 131.607 8.854C131.252 8.64867 130.87 8.546 130.459 8.546C130.048 8.546 129.666 8.64867 129.311 8.854C128.956 9.05 128.667 9.344 128.443 9.736C128.228 10.1187 128.121 10.576 128.121 11.108C128.121 11.64 128.228 12.1067 128.443 12.508C128.667 12.9093 128.956 13.2173 129.311 13.432C129.675 13.6373 130.058 13.74 130.459 13.74C130.87 13.74 131.252 13.6373 131.607 13.432C131.962 13.2267 132.246 12.928 132.461 12.536C132.685 12.1347 132.797 11.668 132.797 11.136ZM135.971 11.108C135.971 10.3333 136.13 9.64733 136.447 9.05C136.774 8.45267 137.212 7.99067 137.763 7.664C138.323 7.328 138.939 7.16 139.611 7.16C140.218 7.16 140.745 7.28133 141.193 7.524C141.65 7.75733 142.014 8.05133 142.285 8.406V7.286H143.895V15H142.285V13.852C142.014 14.216 141.646 14.5193 141.179 14.762C140.712 15.0047 140.18 15.126 139.583 15.126C138.92 15.126 138.314 14.958 137.763 14.622C137.212 14.2767 136.774 13.8007 136.447 13.194C136.13 12.578 135.971 11.8827 135.971 11.108ZM142.285 11.136C142.285 10.604 142.173 10.142 141.949 9.75C141.734 9.358 141.45 9.05933 141.095 8.854C140.74 8.64867 140.358 8.546 139.947 8.546C139.536 8.546 139.154 8.64867 138.799 8.854C138.444 9.05 138.155 9.344 137.931 9.736C137.716 10.1187 137.609 10.576 137.609 11.108C137.609 11.64 137.716 12.1067 137.931 12.508C138.155 12.9093 138.444 13.2173 138.799 13.432C139.163 13.6373 139.546 13.74 139.947 13.74C140.358 13.74 140.74 13.6373 141.095 13.432C141.45 13.2267 141.734 12.928 141.949 12.536C142.173 12.1347 142.285 11.668 142.285 11.136ZM152.428 15.126C151.821 15.126 151.275 15.0187 150.79 14.804C150.314 14.58 149.936 14.2813 149.656 13.908C149.376 13.5253 149.227 13.1007 149.208 12.634H150.86C150.888 12.9607 151.042 13.236 151.322 13.46C151.611 13.6747 151.971 13.782 152.4 13.782C152.848 13.782 153.193 13.698 153.436 13.53C153.688 13.3527 153.814 13.1287 153.814 12.858C153.814 12.5687 153.674 12.354 153.394 12.214C153.123 12.074 152.689 11.92 152.092 11.752C151.513 11.5933 151.042 11.4393 150.678 11.29C150.314 11.1407 149.997 10.912 149.726 10.604C149.465 10.296 149.334 9.89 149.334 9.386C149.334 8.97533 149.455 8.602 149.698 8.266C149.941 7.92067 150.286 7.65 150.734 7.454C151.191 7.258 151.714 7.16 152.302 7.16C153.179 7.16 153.884 7.384 154.416 7.832C154.957 8.27067 155.247 8.87267 155.284 9.638H153.688C153.66 9.29267 153.52 9.01733 153.268 8.812C153.016 8.60667 152.675 8.504 152.246 8.504C151.826 8.504 151.504 8.58333 151.28 8.742C151.056 8.90067 150.944 9.11067 150.944 9.372C150.944 9.57733 151.019 9.75 151.168 9.89C151.317 10.03 151.499 10.142 151.714 10.226C151.929 10.3007 152.246 10.3987 152.666 10.52C153.226 10.6693 153.683 10.8233 154.038 10.982C154.402 11.1313 154.715 11.3553 154.976 11.654C155.237 11.9527 155.373 12.3493 155.382 12.844C155.382 13.2827 155.261 13.6747 155.018 14.02C154.775 14.3653 154.43 14.636 153.982 14.832C153.543 15.028 153.025 15.126 152.428 15.126ZM156.575 11.108C156.575 10.3333 156.733 9.64733 157.051 9.05C157.377 8.45267 157.816 7.99067 158.367 7.664C158.927 7.328 159.543 7.16 160.215 7.16C160.821 7.16 161.349 7.28133 161.797 7.524C162.254 7.75733 162.618 8.05133 162.889 8.406V7.286H164.499V15H162.889V13.852C162.618 14.216 162.249 14.5193 161.783 14.762C161.316 15.0047 160.784 15.126 160.187 15.126C159.524 15.126 158.917 14.958 158.367 14.622C157.816 14.2767 157.377 13.8007 157.051 13.194C156.733 12.578 156.575 11.8827 156.575 11.108ZM162.889 11.136C162.889 10.604 162.777 10.142 162.553 9.75C162.338 9.358 162.053 9.05933 161.699 8.854C161.344 8.64867 160.961 8.546 160.551 8.546C160.14 8.546 159.757 8.64867 159.403 8.854C159.048 9.05 158.759 9.344 158.535 9.736C158.32 10.1187 158.213 10.576 158.213 11.108C158.213 11.64 158.32 12.1067 158.535 12.508C158.759 12.9093 159.048 13.2173 159.403 13.432C159.767 13.6373 160.149 13.74 160.551 13.74C160.961 13.74 161.344 13.6373 161.699 13.432C162.053 13.2267 162.338 12.928 162.553 12.536C162.777 12.1347 162.889 11.668 162.889 11.136ZM166.063 11.108C166.063 10.3333 166.222 9.64733 166.539 9.05C166.866 8.45267 167.304 7.99067 167.855 7.664C168.415 7.328 169.036 7.16 169.717 7.16C170.314 7.16 170.842 7.28133 171.299 7.524C171.766 7.76667 172.125 8.06067 172.377 8.406V7.286H173.987V18.668H172.377V13.88C172.125 14.2253 171.761 14.5193 171.285 14.762C170.809 15.0047 170.268 15.126 169.661 15.126C168.998 15.126 168.392 14.958 167.841 14.622C167.3 14.2767 166.866 13.8007 166.539 13.194C166.222 12.578 166.063 11.8827 166.063 11.108ZM172.377 11.136C172.377 10.604 172.265 10.142 172.041 9.75C171.826 9.358 171.542 9.05933 171.187 8.854C170.832 8.64867 170.45 8.546 170.039 8.546C169.628 8.546 169.246 8.64867 168.891 8.854C168.536 9.05 168.247 9.344 168.023 9.736C167.808 10.1187 167.701 10.576 167.701 11.108C167.701 11.64 167.808 12.1067 168.023 12.508C168.247 12.9093 168.536 13.2173 168.891 13.432C169.255 13.6373 169.638 13.74 170.039 13.74C170.45 13.74 170.832 13.6373 171.187 13.432C171.542 13.2267 171.826 12.928 172.041 12.536C172.265 12.1347 172.377 11.668 172.377 11.136ZM177.679 4.64V15H176.083V4.64H177.679ZM179.243 11.108C179.243 10.3333 179.401 9.64733 179.719 9.05C180.045 8.45267 180.484 7.99067 181.035 7.664C181.595 7.328 182.211 7.16 182.883 7.16C183.489 7.16 184.017 7.28133 184.465 7.524C184.922 7.75733 185.286 8.05133 185.557 8.406V7.286H187.167V15H185.557V13.852C185.286 14.216 184.917 14.5193 184.451 14.762C183.984 15.0047 183.452 15.126 182.855 15.126C182.192 15.126 181.585 14.958 181.035 14.622C180.484 14.2767 180.045 13.8007 179.719 13.194C179.401 12.578 179.243 11.8827 179.243 11.108ZM185.557 11.136C185.557 10.604 185.445 10.142 185.221 9.75C185.006 9.358 184.721 9.05933 184.367 8.854C184.012 8.64867 183.629 8.546 183.219 8.546C182.808 8.546 182.425 8.64867 182.071 8.854C181.716 9.05 181.427 9.344 181.203 9.736C180.988 10.1187 180.881 10.576 180.881 11.108C180.881 11.64 180.988 12.1067 181.203 12.508C181.427 12.9093 181.716 13.2173 182.071 13.432C182.435 13.6373 182.817 13.74 183.219 13.74C183.629 13.74 184.012 13.6373 184.367 13.432C184.721 13.2267 185.006 12.928 185.221 12.536C185.445 12.1347 185.557 11.668 185.557 11.136ZM192.063 15.126C191.456 15.126 190.91 15.0187 190.425 14.804C189.949 14.58 189.571 14.2813 189.291 13.908C189.011 13.5253 188.862 13.1007 188.843 12.634H190.495C190.523 12.9607 190.677 13.236 190.957 13.46C191.246 13.6747 191.606 13.782 192.035 13.782C192.483 13.782 192.828 13.698 193.071 13.53C193.323 13.3527 193.449 13.1287 193.449 12.858C193.449 12.5687 193.309 12.354 193.029 12.214C192.758 12.074 192.324 11.92 191.727 11.752C191.148 11.5933 190.677 11.4393 190.313 11.29C189.949 11.1407 189.632 10.912 189.361 10.604C189.1 10.296 188.969 9.89 188.969 9.386C188.969 8.97533 189.09 8.602 189.333 8.266C189.576 7.92067 189.921 7.65 190.369 7.454C190.826 7.258 191.349 7.16 191.937 7.16C192.814 7.16 193.519 7.384 194.051 7.832C194.592 8.27067 194.882 8.87267 194.919 9.638H193.323C193.295 9.29267 193.155 9.01733 192.903 8.812C192.651 8.60667 192.31 8.504 191.881 8.504C191.461 8.504 191.139 8.58333 190.915 8.742C190.691 8.90067 190.579 9.11067 190.579 9.372C190.579 9.57733 190.654 9.75 190.803 9.89C190.952 10.03 191.134 10.142 191.349 10.226C191.564 10.3007 191.881 10.3987 192.301 10.52C192.861 10.6693 193.318 10.8233 193.673 10.982C194.037 11.1313 194.35 11.3553 194.611 11.654C194.872 11.9527 195.008 12.3493 195.017 12.844C195.017 13.2827 194.896 13.6747 194.653 14.02C194.41 14.3653 194.065 14.636 193.617 14.832C193.178 15.028 192.66 15.126 192.063 15.126ZM200.731 7.16C201.319 7.16 201.842 7.286 202.299 7.538C202.766 7.79 203.13 8.16333 203.391 8.658C203.662 9.15267 203.797 9.75 203.797 10.45V15H202.215V10.688C202.215 9.99733 202.043 9.47 201.697 9.106C201.352 8.73267 200.881 8.546 200.283 8.546C199.686 8.546 199.21 8.73267 198.855 9.106C198.51 9.47 198.337 9.99733 198.337 10.688V15H196.741V4.64H198.337V8.182C198.608 7.85533 198.949 7.60333 199.359 7.426C199.779 7.24867 200.237 7.16 200.731 7.16Z" fill="#0062FF"/>
</svg>
