<svg width="16" height="17" viewBox="0 0 16 17" fill="none" xmlns="http://www.w3.org/2000/svg">
<path d="M8.10668 7.74668C8.04001 7.74001 7.96001 7.74001 7.88668 7.74668C6.30001 7.69334 5.04001 6.39334 5.04001 4.79334C5.04001 3.16001 6.36001 1.83334 8.00001 1.83334C9.63334 1.83334 10.96 3.16001 10.96 4.79334C10.9533 6.39334 9.69334 7.69334 8.10668 7.74668Z" stroke="#92929D" stroke-width="1.5" stroke-linecap="round" stroke-linejoin="round"/>
<path d="M4.77332 10.2067C3.15999 11.2867 3.15999 13.0467 4.77332 14.12C6.60666 15.3467 9.61332 15.3467 11.4467 14.12C13.06 13.04 13.06 11.28 11.4467 10.2067C9.61999 8.98666 6.61332 8.98666 4.77332 10.2067Z" stroke="#92929D" stroke-width="1.5" stroke-linecap="round" stroke-linejoin="round"/>
</svg>
