<svg width="16" height="17" viewBox="0 0 16 17" fill="none" xmlns="http://www.w3.org/2000/svg">
<path d="M7.99999 6.50001V1.83334L6.66666 3.16668" stroke="#92929D" stroke-width="1.5" stroke-linecap="round" stroke-linejoin="round"/>
<path d="M8 1.83334L9.33333 3.16668" stroke="#92929D" stroke-width="1.5" stroke-linecap="round" stroke-linejoin="round"/>
<path d="M1.32001 9.16666H4.26001C4.51334 9.16666 4.74001 9.30666 4.85334 9.53332L5.63334 11.0933C5.86001 11.5467 6.32001 11.8333 6.82667 11.8333H9.18001C9.68667 11.8333 10.1467 11.5467 10.3733 11.0933L11.1533 9.53332C11.2667 9.30666 11.5 9.16666 11.7467 9.16666H14.6533" stroke="#92929D" stroke-width="1.5" stroke-linecap="round" stroke-linejoin="round"/>
<path d="M4.66668 3.92001C2.30668 4.26668 1.33334 5.65335 1.33334 8.50001V10.5C1.33334 13.8333 2.66668 15.1667 6.00001 15.1667H10C13.3333 15.1667 14.6667 13.8333 14.6667 10.5V8.50001C14.6667 5.65335 13.6933 4.26668 11.3333 3.92001" stroke="#92929D" stroke-width="1.5" stroke-linecap="round" stroke-linejoin="round"/>
</svg>
