<svg width="16" height="17" viewBox="0 0 16 17" fill="none" xmlns="http://www.w3.org/2000/svg">
<path d="M11.3333 7.16668H12.6667C14 7.16668 14.6667 6.50001 14.6667 5.16668V3.83334C14.6667 2.50001 14 1.83334 12.6667 1.83334H11.3333C10 1.83334 9.33334 2.50001 9.33334 3.83334V5.16668C9.33334 6.50001 10 7.16668 11.3333 7.16668Z" stroke="#92929D" stroke-width="1.5" stroke-miterlimit="10" stroke-linecap="round" stroke-linejoin="round"/>
<path d="M3.33334 15.1667H4.66668C6.00001 15.1667 6.66668 14.5 6.66668 13.1667V11.8333C6.66668 10.5 6.00001 9.83334 4.66668 9.83334H3.33334C2.00001 9.83334 1.33334 10.5 1.33334 11.8333V13.1667C1.33334 14.5 2.00001 15.1667 3.33334 15.1667Z" stroke="#92929D" stroke-width="1.5" stroke-miterlimit="10" stroke-linecap="round" stroke-linejoin="round"/>
<path d="M4.00001 7.16668C5.47277 7.16668 6.66668 5.97277 6.66668 4.50001C6.66668 3.02725 5.47277 1.83334 4.00001 1.83334C2.52725 1.83334 1.33334 3.02725 1.33334 4.50001C1.33334 5.97277 2.52725 7.16668 4.00001 7.16668Z" stroke="#92929D" stroke-width="1.5" stroke-miterlimit="10" stroke-linecap="round" stroke-linejoin="round"/>
<path d="M12 15.1667C13.4728 15.1667 14.6667 13.9728 14.6667 12.5C14.6667 11.0273 13.4728 9.83334 12 9.83334C10.5273 9.83334 9.33334 11.0273 9.33334 12.5C9.33334 13.9728 10.5273 15.1667 12 15.1667Z" stroke="#92929D" stroke-width="1.5" stroke-miterlimit="10" stroke-linecap="round" stroke-linejoin="round"/>
</svg>
